<svg xmlns="http://www.w3.org/2000/svg" xmlns:xlink="http://www.w3.org/1999/xlink" width="800" zoomAndPan="magnify" viewBox="0 0 1200 479.999983" height="440" preserveAspectRatio="xMidYMid meet" version="1.0"><defs><clipPath id="a404d09a3f"><path d="M 603.1875 71.042969 L 963.9375 71.042969 L 963.9375 431.792969 L 603.1875 431.792969 Z M 603.1875 71.042969 " clip-rule="nonzero"/></clipPath><clipPath id="b894d7d23f"><path d="M 235.855469 71.066406 L 583.105469 71.066406 L 583.105469 431.777344 L 235.855469 431.777344 Z M 235.855469 71.066406 " clip-rule="nonzero"/></clipPath></defs><path fill="#cb6ce6" d="M 912.800781 127.023438 C 911.09375 127.03125 909.40625 126.863281 907.738281 126.515625 C 906.097656 126.195312 904.507812 125.71875 902.960938 125.085938 C 901.425781 124.421875 899.957031 123.628906 898.558594 122.707031 C 897.125 121.769531 895.804688 120.6875 894.59375 119.472656 C 893.375 118.28125 892.296875 116.976562 891.359375 115.554688 C 890.449219 114.148438 889.65625 112.683594 888.980469 111.152344 C 888.351562 109.597656 887.867188 107.996094 887.53125 106.351562 C 887.1875 104.691406 887.015625 103.011719 887.023438 101.3125 C 887.019531 99.605469 887.1875 97.917969 887.53125 96.25 C 887.871094 94.613281 888.355469 93.019531 888.980469 91.472656 C 889.652344 89.9375 890.445312 88.472656 891.359375 87.070312 C 893.230469 84.167969 895.597656 81.761719 898.46875 79.847656 C 899.863281 78.921875 901.332031 78.128906 902.871094 77.472656 C 905.230469 76.511719 907.675781 75.910156 910.207031 75.664062 C 912.742188 75.421875 915.257812 75.546875 917.753906 76.042969 C 919.398438 76.363281 921 76.839844 922.550781 77.472656 C 924.085938 78.140625 925.554688 78.933594 926.953125 79.847656 C 928.378906 80.769531 929.683594 81.832031 930.875 83.042969 C 932.078125 84.246094 933.164062 85.554688 934.132812 86.960938 C 935.039062 88.363281 935.824219 89.828125 936.488281 91.363281 C 937.132812 92.90625 937.617188 94.496094 937.9375 96.140625 C 938.28125 97.808594 938.449219 99.496094 938.445312 101.203125 C 938.453125 102.898438 938.28125 104.582031 937.9375 106.242188 C 937.621094 107.894531 937.136719 109.492188 936.488281 111.042969 C 935.820312 112.574219 935.035156 114.039062 934.132812 115.445312 C 933.207031 116.882812 932.15625 118.226562 930.984375 119.472656 C 929.789062 120.675781 928.484375 121.738281 927.066406 122.664062 C 925.664062 123.582031 924.199219 124.375 922.664062 125.042969 C 921.109375 125.671875 919.507812 126.148438 917.863281 126.472656 C 916.195312 126.832031 914.507812 127.015625 912.800781 127.023438 Z M 912.800781 127.023438 " fill-opacity="1" fill-rule="nonzero"/><g clip-path="url(#a404d09a3f)"><path fill="#272e3d" d="M 860.871094 431.792969 L 628.964844 431.792969 C 628.105469 431.820312 627.246094 431.800781 626.386719 431.742188 C 625.53125 431.679688 624.675781 431.578125 623.828125 431.429688 C 622.984375 431.285156 622.144531 431.097656 621.316406 430.867188 C 620.488281 430.636719 619.671875 430.363281 618.871094 430.054688 C 618.070312 429.742188 617.285156 429.390625 616.519531 429 C 615.753906 428.609375 615.007812 428.183594 614.285156 427.71875 C 613.558594 427.253906 612.859375 426.753906 612.1875 426.21875 C 611.515625 425.6875 610.867188 425.117188 610.25 424.519531 C 609.636719 423.921875 609.050781 423.292969 608.496094 422.632812 C 607.941406 421.976562 607.421875 421.292969 606.9375 420.582031 C 606.449219 419.875 606 419.140625 605.589844 418.386719 C 605.175781 417.632812 604.804688 416.859375 604.46875 416.066406 C 604.132812 415.273438 603.839844 414.46875 603.585938 413.644531 C 603.332031 412.824219 603.117188 411.992188 602.945312 411.148438 C 602.777344 410.304688 602.648438 409.457031 602.5625 408.601562 C 602.476562 407.746094 602.433594 406.886719 602.433594 406.027344 C 602.433594 405.167969 602.476562 404.308594 602.5625 403.453125 C 602.648438 402.597656 602.777344 401.75 602.945312 400.90625 C 603.117188 400.0625 603.332031 399.230469 603.585938 398.410156 C 603.839844 397.589844 604.132812 396.78125 604.46875 395.988281 C 604.804688 395.199219 605.175781 394.425781 605.589844 393.667969 C 606 392.914062 606.449219 392.183594 606.9375 391.472656 C 607.421875 390.761719 607.941406 390.078125 608.496094 389.421875 C 609.050781 388.761719 609.636719 388.136719 610.25 387.535156 C 610.867188 386.9375 611.515625 386.371094 612.1875 385.835938 C 612.859375 385.300781 613.558594 384.800781 614.285156 384.335938 C 615.007812 383.871094 615.753906 383.445312 616.519531 383.054688 C 617.285156 382.664062 618.070312 382.3125 618.871094 382.003906 C 619.671875 381.691406 620.488281 381.417969 621.316406 381.191406 C 622.144531 380.960938 622.984375 380.773438 623.828125 380.625 C 624.675781 380.480469 625.53125 380.375 626.386719 380.316406 C 627.246094 380.253906 628.105469 380.238281 628.964844 380.261719 L 860.871094 380.261719 C 862.558594 380.261719 864.242188 380.179688 865.921875 380.011719 C 867.601562 379.847656 869.269531 379.601562 870.925781 379.269531 C 872.582031 378.941406 874.214844 378.53125 875.832031 378.042969 C 877.445312 377.550781 879.03125 376.984375 880.59375 376.339844 C 882.152344 375.691406 883.675781 374.972656 885.164062 374.175781 C 886.652344 373.382812 888.097656 372.515625 889.5 371.578125 C 890.90625 370.640625 892.257812 369.636719 893.5625 368.5625 C 894.867188 367.492188 896.117188 366.363281 897.3125 365.167969 C 898.503906 363.976562 899.636719 362.726562 900.707031 361.421875 C 901.777344 360.117188 902.78125 358.761719 903.71875 357.359375 C 904.65625 355.957031 905.523438 354.507812 906.320312 353.019531 C 907.113281 351.53125 907.835938 350.007812 908.480469 348.449219 C 909.128906 346.890625 909.695312 345.304688 910.183594 343.6875 C 910.675781 342.074219 911.085938 340.4375 911.414062 338.78125 C 911.742188 337.128906 911.992188 335.460938 912.15625 333.78125 C 912.320312 332.101562 912.402344 330.417969 912.402344 328.730469 C 912.402344 327.042969 912.320312 325.359375 912.15625 323.679688 C 911.992188 322 911.742188 320.332031 911.414062 318.675781 C 911.085938 317.019531 910.675781 315.386719 910.183594 313.769531 C 909.695312 312.15625 909.128906 310.566406 908.480469 309.007812 C 907.835938 307.449219 907.113281 305.925781 906.320312 304.4375 C 905.523438 302.949219 904.65625 301.503906 903.71875 300.097656 C 902.78125 298.695312 901.777344 297.339844 900.707031 296.035156 C 899.636719 294.730469 898.503906 293.484375 897.3125 292.289062 C 896.117188 291.097656 894.867188 289.964844 893.5625 288.894531 C 892.257812 287.824219 890.90625 286.820312 889.5 285.882812 C 888.097656 284.945312 886.652344 284.078125 885.164062 283.28125 C 883.675781 282.484375 882.152344 281.765625 880.59375 281.117188 C 879.03125 280.472656 877.445312 279.90625 875.832031 279.414062 C 874.214844 278.925781 872.582031 278.515625 870.925781 278.1875 C 869.269531 277.855469 867.601562 277.609375 865.921875 277.445312 C 864.242188 277.277344 862.558594 277.195312 860.871094 277.195312 L 706.253906 277.195312 C 704.582031 277.171875 702.910156 277.105469 701.242188 277 C 699.574219 276.894531 697.910156 276.75 696.25 276.5625 C 694.589844 276.375 692.933594 276.148438 691.285156 275.882812 C 689.632812 275.617188 687.992188 275.308594 686.355469 274.960938 C 684.722656 274.613281 683.09375 274.226562 681.480469 273.800781 C 679.863281 273.375 678.257812 272.910156 676.664062 272.40625 C 675.070312 271.902344 673.492188 271.359375 671.921875 270.777344 C 670.355469 270.199219 668.804688 269.578125 667.265625 268.921875 C 665.730469 268.265625 664.210938 267.574219 662.707031 266.84375 C 661.203125 266.113281 659.71875 265.34375 658.253906 264.542969 C 656.785156 263.738281 655.339844 262.902344 653.914062 262.027344 C 652.492188 261.15625 651.085938 260.25 649.707031 259.308594 C 648.324219 258.367188 646.96875 257.390625 645.632812 256.382812 C 644.300781 255.378906 642.992188 254.339844 641.707031 253.265625 C 640.425781 252.195312 639.167969 251.09375 637.9375 249.964844 C 636.707031 248.832031 635.507812 247.667969 634.335938 246.480469 C 633.160156 245.289062 632.015625 244.070312 630.902344 242.824219 C 629.789062 241.578125 628.707031 240.304688 627.65625 239.007812 C 626.601562 237.707031 625.582031 236.386719 624.59375 235.035156 C 623.605469 233.6875 622.652344 232.316406 621.730469 230.921875 C 620.8125 229.527344 619.925781 228.109375 619.074219 226.671875 C 618.21875 225.234375 617.402344 223.777344 616.621094 222.300781 C 615.839844 220.820312 615.097656 219.324219 614.386719 217.8125 C 613.679688 216.296875 613.007812 214.769531 612.375 213.222656 C 611.742188 211.675781 611.144531 210.113281 610.585938 208.539062 C 610.027344 206.964844 609.507812 205.375 609.027344 203.773438 C 608.546875 202.171875 608.105469 200.5625 607.703125 198.941406 C 607.300781 197.316406 606.9375 195.6875 606.617188 194.046875 C 606.292969 192.40625 606.007812 190.761719 605.765625 189.105469 C 605.523438 187.453125 605.320312 185.792969 605.160156 184.132812 C 604.996094 182.46875 604.875 180.800781 604.792969 179.132812 C 604.710938 177.460938 604.671875 175.792969 604.671875 174.121094 C 604.671875 172.449219 604.710938 170.777344 604.792969 169.109375 C 604.875 167.441406 604.996094 165.773438 605.160156 164.109375 C 605.320312 162.445312 605.523438 160.789062 605.765625 159.132812 C 606.007812 157.480469 606.292969 155.832031 606.617188 154.195312 C 606.9375 152.554688 607.300781 150.921875 607.703125 149.300781 C 608.105469 147.679688 608.546875 146.066406 609.027344 144.464844 C 609.507812 142.867188 610.027344 141.277344 610.585938 139.703125 C 611.144531 138.125 611.742188 136.566406 612.375 135.019531 C 613.007812 133.472656 613.679688 131.941406 614.386719 130.429688 C 615.097656 128.914062 615.839844 127.417969 616.621094 125.941406 C 617.402344 124.464844 618.21875 123.003906 619.074219 121.566406 C 619.925781 120.128906 620.8125 118.714844 621.730469 117.320312 C 622.652344 115.925781 623.605469 114.550781 624.59375 113.203125 C 625.582031 111.855469 626.601562 110.53125 627.65625 109.234375 C 628.707031 107.933594 629.789062 106.664062 630.902344 105.417969 C 632.015625 104.171875 633.160156 102.953125 634.335938 101.761719 C 635.507812 100.570312 636.707031 99.410156 637.9375 98.277344 C 639.167969 97.144531 640.425781 96.042969 641.707031 94.972656 C 642.992188 93.902344 644.300781 92.863281 645.632812 91.855469 C 646.96875 90.847656 648.324219 89.875 649.707031 88.933594 C 651.085938 87.992188 652.492188 87.085938 653.914062 86.210938 C 655.339844 85.339844 656.785156 84.5 658.253906 83.699219 C 659.71875 82.894531 661.203125 82.128906 662.707031 81.398438 C 664.210938 80.667969 665.730469 79.976562 667.265625 79.316406 C 668.804688 78.660156 670.355469 78.042969 671.921875 77.460938 C 673.492188 76.882812 675.070312 76.339844 676.664062 75.835938 C 678.257812 75.332031 679.863281 74.863281 681.480469 74.4375 C 683.09375 74.011719 684.722656 73.625 686.355469 73.28125 C 687.992188 72.933594 689.632812 72.625 691.285156 72.359375 C 692.933594 72.089844 694.589844 71.863281 696.25 71.675781 C 697.910156 71.492188 699.574219 71.34375 701.242188 71.238281 C 702.910156 71.132812 704.582031 71.070312 706.253906 71.042969 L 835.09375 71.042969 C 835.953125 71.019531 836.8125 71.035156 837.671875 71.097656 C 838.527344 71.160156 839.382812 71.261719 840.226562 71.40625 C 841.074219 71.554688 841.914062 71.742188 842.742188 71.972656 C 843.570312 72.203125 844.386719 72.472656 845.1875 72.785156 C 845.988281 73.097656 846.773438 73.449219 847.539062 73.835938 C 848.304688 74.226562 849.050781 74.65625 849.773438 75.121094 C 850.5 75.585938 851.195312 76.082031 851.871094 76.617188 C 852.542969 77.152344 853.191406 77.71875 853.808594 78.320312 C 854.421875 78.917969 855.007812 79.546875 855.5625 80.203125 C 856.117188 80.863281 856.636719 81.546875 857.121094 82.253906 C 857.609375 82.964844 858.058594 83.699219 858.46875 84.453125 C 858.882812 85.207031 859.253906 85.980469 859.589844 86.773438 C 859.925781 87.5625 860.21875 88.371094 860.472656 89.191406 C 860.726562 90.015625 860.941406 90.847656 861.109375 91.6875 C 861.28125 92.53125 861.410156 93.382812 861.496094 94.238281 C 861.582031 95.09375 861.625 95.949219 861.625 96.808594 C 861.625 97.671875 861.582031 98.527344 861.496094 99.382812 C 861.410156 100.238281 861.28125 101.089844 861.109375 101.933594 C 860.941406 102.773438 860.726562 103.605469 860.472656 104.429688 C 860.21875 105.25 859.925781 106.058594 859.589844 106.847656 C 859.253906 107.640625 858.882812 108.414062 858.46875 109.167969 C 858.058594 109.921875 857.609375 110.65625 857.121094 111.367188 C 856.636719 112.074219 856.117188 112.757812 855.5625 113.417969 C 855.007812 114.074219 854.421875 114.703125 853.808594 115.300781 C 853.191406 115.902344 852.542969 116.46875 851.871094 117.003906 C 851.195312 117.539062 850.5 118.035156 849.773438 118.5 C 849.050781 118.964844 848.304688 119.394531 847.539062 119.785156 C 846.773438 120.171875 845.988281 120.523438 845.1875 120.835938 C 844.386719 121.148438 843.570312 121.417969 842.742188 121.648438 C 841.914062 121.878906 841.074219 122.066406 840.226562 122.210938 C 839.382812 122.359375 838.527344 122.460938 837.671875 122.523438 C 836.8125 122.585938 835.953125 122.601562 835.09375 122.578125 L 706.253906 122.578125 C 704.585938 122.609375 702.925781 122.726562 701.269531 122.921875 C 699.617188 123.117188 697.976562 123.390625 696.347656 123.746094 C 694.71875 124.101562 693.113281 124.535156 691.527344 125.042969 C 689.9375 125.554688 688.382812 126.140625 686.851562 126.800781 C 685.324219 127.460938 683.828125 128.195312 682.371094 129.003906 C 680.914062 129.808594 679.496094 130.683594 678.125 131.628906 C 676.75 132.570312 675.425781 133.578125 674.148438 134.652344 C 672.875 135.722656 671.652344 136.855469 670.488281 138.042969 C 669.320312 139.234375 668.214844 140.476562 667.171875 141.777344 C 666.125 143.074219 665.144531 144.417969 664.230469 145.8125 C 663.316406 147.203125 662.46875 148.636719 661.695312 150.113281 C 660.917969 151.585938 660.214844 153.09375 659.585938 154.636719 C 658.957031 156.179688 658.402344 157.75 657.925781 159.347656 C 657.445312 160.941406 657.046875 162.558594 656.726562 164.191406 C 656.40625 165.828125 656.164062 167.476562 656.003906 169.132812 C 655.84375 170.792969 655.761719 172.453125 655.761719 174.121094 C 655.761719 175.785156 655.84375 177.449219 656.003906 179.105469 C 656.164062 180.765625 656.40625 182.414062 656.726562 184.046875 C 657.046875 185.683594 657.445312 187.296875 657.925781 188.894531 C 658.402344 190.492188 658.957031 192.058594 659.585938 193.601562 C 660.214844 195.144531 660.917969 196.65625 661.695312 198.128906 C 662.46875 199.601562 663.316406 201.035156 664.230469 202.429688 C 665.144531 203.820312 666.125 205.167969 667.171875 206.464844 C 668.214844 207.761719 669.320312 209.007812 670.488281 210.195312 C 671.652344 211.386719 672.875 212.519531 674.148438 213.589844 C 675.425781 214.660156 676.75 215.667969 678.125 216.613281 C 679.496094 217.554688 680.914062 218.429688 682.371094 219.238281 C 683.828125 220.042969 685.324219 220.777344 686.851562 221.4375 C 688.382812 222.101562 689.9375 222.6875 691.527344 223.195312 C 693.113281 223.707031 694.71875 224.140625 696.347656 224.496094 C 697.976562 224.847656 699.617188 225.125 701.269531 225.320312 C 702.925781 225.515625 704.585938 225.628906 706.253906 225.664062 L 860.871094 225.664062 C 862.558594 225.664062 864.242188 225.707031 865.929688 225.789062 C 867.613281 225.871094 869.296875 225.996094 870.972656 226.160156 C 872.652344 226.324219 874.324219 226.53125 875.996094 226.78125 C 877.664062 227.027344 879.324219 227.316406 880.980469 227.644531 C 882.632812 227.972656 884.277344 228.34375 885.914062 228.753906 C 887.550781 229.164062 889.175781 229.613281 890.789062 230.101562 C 892.402344 230.589844 894.003906 231.121094 895.59375 231.6875 C 897.179688 232.257812 898.753906 232.863281 900.3125 233.507812 C 901.871094 234.15625 903.414062 234.839844 904.9375 235.558594 C 906.460938 236.28125 907.96875 237.039062 909.457031 237.832031 C 910.945312 238.628906 912.410156 239.460938 913.859375 240.328125 C 915.304688 241.195312 916.730469 242.097656 918.132812 243.035156 C 919.535156 243.96875 920.914062 244.941406 922.265625 245.945312 C 923.621094 246.949219 924.953125 247.988281 926.253906 249.058594 C 927.558594 250.128906 928.835938 251.230469 930.085938 252.363281 C 931.335938 253.496094 932.558594 254.660156 933.75 255.851562 C 934.941406 257.042969 936.105469 258.265625 937.238281 259.515625 C 938.371094 260.765625 939.472656 262.042969 940.542969 263.34375 C 941.613281 264.648438 942.648438 265.976562 943.652344 267.332031 C 944.660156 268.6875 945.628906 270.066406 946.566406 271.46875 C 947.503906 272.871094 948.40625 274.296875 949.273438 275.742188 C 950.140625 277.191406 950.972656 278.65625 951.765625 280.144531 C 952.5625 281.632812 953.320312 283.136719 954.042969 284.664062 C 954.761719 286.1875 955.445312 287.730469 956.089844 289.289062 C 956.738281 290.847656 957.34375 292.417969 957.910156 294.007812 C 958.480469 295.59375 959.007812 297.195312 959.5 298.8125 C 959.988281 300.425781 960.4375 302.050781 960.847656 303.6875 C 961.257812 305.324219 961.628906 306.96875 961.957031 308.621094 C 962.285156 310.277344 962.574219 311.9375 962.820312 313.605469 C 963.070312 315.273438 963.273438 316.949219 963.441406 318.625 C 963.605469 320.304688 963.730469 321.988281 963.8125 323.671875 C 963.894531 325.355469 963.9375 327.042969 963.9375 328.730469 C 963.9375 330.414062 963.894531 332.101562 963.8125 333.785156 C 963.730469 335.472656 963.605469 337.152344 963.441406 338.832031 C 963.273438 340.507812 963.070312 342.183594 962.820312 343.851562 C 962.574219 345.519531 962.285156 347.179688 961.957031 348.835938 C 961.628906 350.492188 961.257812 352.136719 960.847656 353.773438 C 960.4375 355.40625 959.988281 357.03125 959.5 358.648438 C 959.007812 360.261719 958.480469 361.863281 957.910156 363.449219 C 957.34375 365.039062 956.738281 366.613281 956.089844 368.171875 C 955.445312 369.730469 954.761719 371.269531 954.042969 372.796875 C 953.320312 374.320312 952.5625 375.824219 951.765625 377.3125 C 950.972656 378.800781 950.140625 380.269531 949.273438 381.714844 C 948.40625 383.160156 947.503906 384.585938 946.566406 385.988281 C 945.628906 387.390625 944.660156 388.769531 943.652344 390.125 C 942.648438 391.480469 941.613281 392.808594 940.542969 394.113281 C 939.472656 395.417969 938.371094 396.695312 937.238281 397.941406 C 936.105469 399.191406 934.941406 400.414062 933.75 401.605469 C 932.558594 402.800781 931.335938 403.960938 930.085938 405.09375 C 928.835938 406.226562 927.558594 407.328125 926.253906 408.398438 C 924.953125 409.46875 923.621094 410.507812 922.265625 411.511719 C 920.914062 412.515625 919.535156 413.488281 918.132812 414.425781 C 916.730469 415.363281 915.304688 416.265625 913.859375 417.128906 C 912.410156 417.996094 910.945312 418.828125 909.457031 419.625 C 907.96875 420.417969 906.460938 421.175781 904.9375 421.898438 C 903.414062 422.621094 901.871094 423.304688 900.3125 423.949219 C 898.753906 424.59375 897.179688 425.199219 895.59375 425.769531 C 894.003906 426.335938 892.402344 426.867188 890.789062 427.355469 C 889.175781 427.847656 887.550781 428.296875 885.914062 428.707031 C 884.277344 429.117188 882.632812 429.484375 880.980469 429.8125 C 879.324219 430.144531 877.664062 430.429688 875.996094 430.679688 C 874.324219 430.925781 872.652344 431.132812 870.972656 431.296875 C 869.296875 431.464844 867.613281 431.585938 865.929688 431.671875 C 864.242188 431.753906 862.558594 431.792969 860.871094 431.792969 Z M 860.871094 431.792969 " fill-opacity="1" fill-rule="nonzero"/></g><g clip-path="url(#b894d7d23f)"><path fill="#cb6ce6" d="M 583.105469 431.777344 L 416.460938 431.777344 C 316.710938 431.777344 235.855469 351.03125 235.855469 251.421875 C 235.855469 201.621094 256.074219 156.519531 288.757812 123.894531 C 321.441406 91.253906 366.582031 71.0625 416.460938 71.0625 L 569.742188 71.0625 L 515.003906 125.730469 L 431.226562 125.730469 C 396.460938 125.730469 365.003906 139.796875 342.226562 162.542969 C 319.449219 185.289062 305.363281 216.707031 305.363281 251.421875 C 305.363281 320.84375 361.710938 377.113281 431.226562 377.113281 L 528.367188 377.113281 L 583.105469 431.777344 " fill-opacity="1" fill-rule="nonzero"/></g></svg>